<svg width="12" height="16" viewBox="0 0 12 16" fill="none" xmlns="http://www.w3.org/2000/svg">
<path d="M1.5 16C1.29688 16 1.10417 15.9609 0.921875 15.8828C0.739583 15.8047 0.578125 15.6979 0.4375 15.5625C0.302083 15.4219 0.195312 15.2604 0.117188 15.0781C0.0390625 14.8958 0 14.7031 0 14.5V2.5C0 2.29688 0.0390625 2.10417 0.117188 1.92188C0.195312 1.73958 0.302083 1.58073 0.4375 1.44531C0.578125 1.30469 0.739583 1.19531 0.921875 1.11719C1.10417 1.03906 1.29688 1 1.5 1H3.08594C3.13802 0.848958 3.21094 0.713542 3.30469 0.59375C3.39844 0.46875 3.50781 0.361979 3.63281 0.273438C3.75781 0.184896 3.89323 0.117188 4.03906 0.0703125C4.1849 0.0234375 4.33854 0 4.5 0H7.5C7.66146 0 7.8151 0.0234375 7.96094 0.0703125C8.10677 0.117188 8.24219 0.184896 8.36719 0.273438C8.49219 0.361979 8.60156 0.46875 8.69531 0.59375C8.78906 0.713542 8.86198 0.848958 8.91406 1H10.5C10.7031 1 10.8958 1.03906 11.0781 1.11719C11.2604 1.19531 11.4193 1.30469 11.5547 1.44531C11.6953 1.58073 11.8047 1.73958 11.8828 1.92188C11.9609 2.10417 12 2.29688 12 2.5V14.5C12 14.7031 11.9609 14.8958 11.8828 15.0781C11.8047 15.2604 11.6953 15.4219 11.5547 15.5625C11.4193 15.6979 11.2604 15.8047 11.0781 15.8828C10.8958 15.9609 10.7031 16 10.5 16H1.5ZM7.5 2C7.63542 2 7.7526 1.95052 7.85156 1.85156C7.95052 1.7526 8 1.63542 8 1.5C8 1.36458 7.95052 1.2474 7.85156 1.14844C7.7526 1.04948 7.63542 1 7.5 1H4.5C4.36458 1 4.2474 1.04948 4.14844 1.14844C4.04948 1.2474 4 1.36458 4 1.5C4 1.63542 4.04948 1.7526 4.14844 1.85156C4.2474 1.95052 4.36458 2 4.5 2H7.5ZM10.5 15C10.6354 15 10.7526 14.9505 10.8516 14.8516C10.9505 14.7526 11 14.6354 11 14.5V2.5C11 2.36458 10.9505 2.2474 10.8516 2.14844C10.7526 2.04948 10.6354 2 10.5 2H8.91406C8.86198 2.15104 8.78906 2.28906 8.69531 2.41406C8.60156 2.53385 8.49219 2.63802 8.36719 2.72656C8.24219 2.8099 8.10417 2.8776 7.95312 2.92969C7.80729 2.97656 7.65625 3 7.5 3H4.5C4.34375 3 4.19271 2.97656 4.04688 2.92969C3.90104 2.8776 3.76562 2.8099 3.64062 2.72656C3.51562 2.63802 3.40365 2.53385 3.30469 2.41406C3.21094 2.28906 3.13802 2.15104 3.08594 2H1.5C1.36458 2 1.2474 2.04948 1.14844 2.14844C1.04948 2.2474 1 2.36458 1 2.5V14.5C1 14.6354 1.04948 14.7526 1.14844 14.8516C1.2474 14.9505 1.36458 15 1.5 15H10.5ZM2 6.5C2 6.35938 2.02604 6.22917 2.07812 6.10938C2.13021 5.98958 2.20052 5.88542 2.28906 5.79688C2.38281 5.70312 2.48958 5.63021 2.60938 5.57812C2.72917 5.52604 2.85938 5.5 3 5.5C3.13542 5.5 3.26302 5.52604 3.38281 5.57812C3.50781 5.63021 3.61458 5.70312 3.70312 5.79688C3.79688 5.88542 3.86979 5.99219 3.92188 6.11719C3.97396 6.23698 4 6.36458 4 6.5C4 6.64062 3.97396 6.77083 3.92188 6.89062C3.86979 7.01042 3.79688 7.11719 3.70312 7.21094C3.61458 7.29948 3.51042 7.36979 3.39062 7.42188C3.27083 7.47396 3.14062 7.5 3 7.5C2.85938 7.5 2.72656 7.47396 2.60156 7.42188C2.48177 7.36979 2.3776 7.29948 2.28906 7.21094C2.20052 7.1224 2.13021 7.01823 2.07812 6.89844C2.02604 6.77344 2 6.64062 2 6.5ZM5.5 7C5.36458 7 5.2474 6.95052 5.14844 6.85156C5.04948 6.7526 5 6.63542 5 6.5C5 6.36458 5.04948 6.2474 5.14844 6.14844C5.2474 6.04948 5.36458 6 5.5 6H9.5C9.63542 6 9.7526 6.04948 9.85156 6.14844C9.95052 6.2474 10 6.36458 10 6.5C10 6.63542 9.95052 6.7526 9.85156 6.85156C9.7526 6.95052 9.63542 7 9.5 7H5.5ZM2 9.5C2 9.35938 2.02604 9.22917 2.07812 9.10938C2.13021 8.98958 2.20052 8.88542 2.28906 8.79688C2.38281 8.70312 2.48958 8.63021 2.60938 8.57812C2.72917 8.52604 2.85938 8.5 3 8.5C3.13542 8.5 3.26302 8.52604 3.38281 8.57812C3.50781 8.63021 3.61458 8.70312 3.70312 8.79688C3.79688 8.88542 3.86979 8.99219 3.92188 9.11719C3.97396 9.23698 4 9.36458 4 9.5C4 9.64062 3.97396 9.77083 3.92188 9.89062C3.86979 10.0104 3.79688 10.1172 3.70312 10.2109C3.61458 10.2995 3.51042 10.3698 3.39062 10.4219C3.27083 10.474 3.14062 10.5 3 10.5C2.85938 10.5 2.72656 10.474 2.60156 10.4219C2.48177 10.3698 2.3776 10.2995 2.28906 10.2109C2.20052 10.1224 2.13021 10.0182 2.07812 9.89844C2.02604 9.77344 2 9.64062 2 9.5ZM5.5 10C5.36458 10 5.2474 9.95052 5.14844 9.85156C5.04948 9.7526 5 9.63542 5 9.5C5 9.36458 5.04948 9.2474 5.14844 9.14844C5.2474 9.04948 5.36458 9 5.5 9H9.5C9.63542 9 9.7526 9.04948 9.85156 9.14844C9.95052 9.2474 10 9.36458 10 9.5C10 9.63542 9.95052 9.7526 9.85156 9.85156C9.7526 9.95052 9.63542 10 9.5 10H5.5ZM2 12.5C2 12.3594 2.02604 12.2292 2.07812 12.1094C2.13021 11.9896 2.20052 11.8854 2.28906 11.7969C2.38281 11.7031 2.48958 11.6302 2.60938 11.5781C2.72917 11.526 2.85938 11.5 3 11.5C3.13542 11.5 3.26302 11.526 3.38281 11.5781C3.50781 11.6302 3.61458 11.7031 3.70312 11.7969C3.79688 11.8854 3.86979 11.9922 3.92188 12.1172C3.97396 12.237 4 12.3646 4 12.5C4 12.6406 3.97396 12.7708 3.92188 12.8906C3.86979 13.0104 3.79688 13.1172 3.70312 13.2109C3.61458 13.2995 3.51042 13.3698 3.39062 13.4219C3.27083 13.474 3.14062 13.5 3 13.5C2.85938 13.5 2.72656 13.474 2.60156 13.4219C2.48177 13.3698 2.3776 13.2995 2.28906 13.2109C2.20052 13.1224 2.13021 13.0182 2.07812 12.8984C2.02604 12.7734 2 12.6406 2 12.5ZM5.5 13C5.36458 13 5.2474 12.9505 5.14844 12.8516C5.04948 12.7526 5 12.6354 5 12.5C5 12.3646 5.04948 12.2474 5.14844 12.1484C5.2474 12.0495 5.36458 12 5.5 12H9.5C9.63542 12 9.7526 12.0495 9.85156 12.1484C9.95052 12.2474 10 12.3646 10 12.5C10 12.6354 9.95052 12.7526 9.85156 12.8516C9.7526 12.9505 9.63542 13 9.5 13H5.5Z" fill="black" fill-opacity="0.8956"/>
</svg>
