<svg width="16" height="12" viewBox="0 0 16 12" fill="none" xmlns="http://www.w3.org/2000/svg">
<path d="M16 11.5C16 11.6354 15.9505 11.7526 15.8516 11.8516C15.7526 11.9505 15.6354 12 15.5 12H0.5C0.364583 12 0.247396 11.9505 0.148438 11.8516C0.0494792 11.7526 0 11.6354 0 11.5V0.5C0 0.364583 0.0494792 0.247396 0.148438 0.148438C0.247396 0.0494792 0.364583 0 0.5 0C0.635417 0 0.752604 0.0494792 0.851562 0.148438C0.950521 0.247396 1 0.364583 1 0.5V3.80469C1.05729 3.78385 1.15365 3.75 1.28906 3.70312C1.42448 3.65625 1.57812 3.60417 1.75 3.54688C1.92188 3.48438 2.10156 3.42188 2.28906 3.35938C2.47656 3.29688 2.65365 3.23958 2.82031 3.1875C2.98698 3.13021 3.13021 3.08594 3.25 3.05469C3.375 3.01823 3.45573 3 3.49219 3C3.59635 3 3.69271 3.02865 3.78125 3.08594L6.4375 4.85938L10.1484 1.14844C10.2474 1.04948 10.3646 1 10.5 1C10.6354 1 10.7526 1.04948 10.8516 1.14844L14.8516 5.14844C14.9505 5.2474 15 5.36458 15 5.5V11H15.2656C15.3542 11 15.4401 11.0052 15.5234 11.0156C15.612 11.026 15.6901 11.0495 15.7578 11.0859C15.8307 11.1172 15.888 11.1667 15.9297 11.2344C15.9766 11.2969 16 11.3854 16 11.5ZM3.42969 4.05469L1 4.85938V7.80469L3.34375 7.02344C3.39583 7.00781 3.45052 7 3.50781 7C3.54427 7 3.58333 7.00521 3.625 7.01562L7.34375 7.94531L9.14844 6.14844C9.2474 6.04948 9.36719 6 9.50781 6C9.54948 6 9.58073 6.0026 9.60156 6.00781L14 6.89062V5.70312L10.5 2.20312L6.85156 5.85156C6.7526 5.95052 6.63542 6 6.5 6C6.40104 6 6.3099 5.97135 6.22656 5.91406L3.42969 4.05469ZM1 8.85938V11H14V7.91406L9.66406 7.03906L7.85156 8.85156C7.7526 8.95052 7.63542 9 7.5 9C7.46354 9 7.42448 8.99479 7.38281 8.98438L3.52344 8.02344L1 8.85938Z" fill="black" fill-opacity="0.8956"/>
</svg>
