<svg width="16" height="16" viewBox="0 0 16 16" fill="none" xmlns="http://www.w3.org/2000/svg">
<path d="M15.9453 2.57031C15.9453 2.94531 15.875 3.3099 15.7344 3.66406C15.5938 4.01302 15.3906 4.32031 15.125 4.58594L5.14062 14.5703C5.07812 14.6328 5.00521 14.6849 4.92188 14.7266C4.84375 14.7682 4.76042 14.8021 4.67188 14.8281L0.804688 15.7969C0.752604 15.8073 0.713542 15.8125 0.6875 15.8125C0.552083 15.8125 0.434896 15.7656 0.335938 15.6719C0.236979 15.5729 0.1875 15.4557 0.1875 15.3203C0.1875 15.2891 0.192708 15.2474 0.203125 15.1953L1.17188 11.3281C1.19792 11.2396 1.23177 11.1562 1.27344 11.0781C1.3151 10.9948 1.36719 10.9219 1.42969 10.8594L11.5234 0.765625C11.7682 0.520833 12.0521 0.333333 12.375 0.203125C12.7031 0.0677083 13.0391 0 13.3828 0C13.7422 0 14.0781 0.0677083 14.3906 0.203125C14.7031 0.333333 14.974 0.515625 15.2031 0.75C15.4375 0.979167 15.6198 1.25 15.75 1.5625C15.8802 1.875 15.9453 2.21094 15.9453 2.57031ZM14.9453 2.60156C14.9453 2.3776 14.9062 2.16927 14.8281 1.97656C14.7552 1.77865 14.6484 1.60677 14.5078 1.46094C14.3724 1.3151 14.2083 1.20312 14.0156 1.125C13.8229 1.04167 13.612 1 13.3828 1C13.1849 1 13.0104 1.02865 12.8594 1.08594C12.7083 1.13802 12.5677 1.21094 12.4375 1.30469C12.3125 1.39844 12.1927 1.50521 12.0781 1.625C11.9635 1.74479 11.8411 1.86979 11.7109 2L14 4.28906C14.1302 4.16406 14.2526 4.04167 14.3672 3.92188C14.4818 3.80208 14.5807 3.67708 14.6641 3.54688C14.7526 3.41667 14.8203 3.27604 14.8672 3.125C14.9193 2.97396 14.9453 2.79948 14.9453 2.60156ZM1.375 14.625L4.42969 13.8594L13.2969 4.99219L11.0078 2.70312L2.14062 11.5703L1.375 14.625Z" fill="black" fill-opacity="0.8956"/>
</svg>
