<svg width="16" height="16" viewBox="0 0 16 16" fill="none" xmlns="http://www.w3.org/2000/svg">
<path d="M0 8C0 7.26562 0.09375 6.55729 0.28125 5.875C0.473958 5.19271 0.744792 4.55729 1.09375 3.96875C1.44271 3.375 1.85938 2.83594 2.34375 2.35156C2.83333 1.86198 3.3724 1.44271 3.96094 1.09375C4.55469 0.744792 5.19271 0.476562 5.875 0.289062C6.55729 0.0963542 7.26562 0 8 0C8.73438 0 9.44271 0.0963542 10.125 0.289062C10.8073 0.476562 11.4427 0.744792 12.0312 1.09375C12.625 1.44271 13.1641 1.86198 13.6484 2.35156C14.138 2.83594 14.5573 3.375 14.9062 3.96875C15.2552 4.55729 15.5234 5.19271 15.7109 5.875C15.9036 6.55729 16 7.26562 16 8C16 8.73438 15.9036 9.44271 15.7109 10.125C15.5234 10.8073 15.2552 11.4453 14.9062 12.0391C14.5573 12.6276 14.138 13.1667 13.6484 13.6562C13.1641 14.1406 12.625 14.5573 12.0312 14.9062C11.4427 15.2552 10.8073 15.526 10.125 15.7188C9.44271 15.9062 8.73438 16 8 16C7.26562 16 6.55729 15.9062 5.875 15.7188C5.19271 15.526 4.55469 15.2552 3.96094 14.9062C3.3724 14.5573 2.83333 14.1406 2.34375 13.6562C1.85938 13.1667 1.44271 12.6276 1.09375 12.0391C0.744792 11.4453 0.473958 10.8073 0.28125 10.125C0.09375 9.44271 0 8.73438 0 8ZM15 8C15 7.35938 14.9167 6.74219 14.75 6.14844C14.5833 5.54948 14.3464 4.99219 14.0391 4.47656C13.737 3.95573 13.3724 3.48177 12.9453 3.05469C12.5182 2.6276 12.0443 2.26302 11.5234 1.96094C11.0078 1.65365 10.4505 1.41667 9.85156 1.25C9.25781 1.08333 8.64062 1 8 1C7.35417 1 6.73177 1.08333 6.13281 1.25C5.53906 1.41667 4.98177 1.65365 4.46094 1.96094C3.94531 2.26302 3.47396 2.6276 3.04688 3.05469C2.625 3.47656 2.26042 3.94792 1.95312 4.46875C1.65104 4.98438 1.41667 5.54167 1.25 6.14062C1.08333 6.73438 1 7.35417 1 8C1 8.64583 1.08333 9.26823 1.25 9.86719C1.41667 10.4609 1.65104 11.0182 1.95312 11.5391C2.26042 12.0547 2.625 12.526 3.04688 12.9531C3.47396 13.375 3.94531 13.7396 4.46094 14.0469C4.98177 14.349 5.53906 14.5833 6.13281 14.75C6.73177 14.9167 7.35417 15 8 15C8.64583 15 9.26562 14.9167 9.85938 14.75C10.4583 14.5833 11.0156 14.349 11.5312 14.0469C12.0521 13.7396 12.5234 13.375 12.9453 12.9531C13.3724 12.526 13.737 12.0547 14.0391 11.5391C14.3464 11.0182 14.5833 10.4609 14.75 9.86719C14.9167 9.26823 15 8.64583 15 8ZM4.5 6C4.36458 6 4.2474 5.95052 4.14844 5.85156C4.04948 5.7526 4 5.63542 4 5.5C4 5.36458 4.04948 5.2474 4.14844 5.14844C4.2474 5.04948 4.36458 5 4.5 5H11.5C11.6354 5 11.7526 5.04948 11.8516 5.14844C11.9505 5.2474 12 5.36458 12 5.5C12 5.63542 11.9505 5.7526 11.8516 5.85156C11.7526 5.95052 11.6354 6 11.5 6H4.5ZM4.5 8.5C4.36458 8.5 4.2474 8.45052 4.14844 8.35156C4.04948 8.2526 4 8.13542 4 8C4 7.86458 4.04948 7.7474 4.14844 7.64844C4.2474 7.54948 4.36458 7.5 4.5 7.5H11.5C11.6354 7.5 11.7526 7.54948 11.8516 7.64844C11.9505 7.7474 12 7.86458 12 8C12 8.13542 11.9505 8.2526 11.8516 8.35156C11.7526 8.45052 11.6354 8.5 11.5 8.5H4.5ZM4.5 11C4.36458 11 4.2474 10.9505 4.14844 10.8516C4.04948 10.7526 4 10.6354 4 10.5C4 10.3646 4.04948 10.2474 4.14844 10.1484C4.2474 10.0495 4.36458 10 4.5 10H11.5C11.6354 10 11.7526 10.0495 11.8516 10.1484C11.9505 10.2474 12 10.3646 12 10.5C12 10.6354 11.9505 10.7526 11.8516 10.8516C11.7526 10.9505 11.6354 11 11.5 11H4.5Z" fill="black" fill-opacity="0.8956"/>
</svg>
