<svg width="12" height="16" viewBox="0 0 12 16" fill="none" xmlns="http://www.w3.org/2000/svg">
<path d="M12 4.70312V14.0391C12 14.2995 11.9453 14.5495 11.8359 14.7891C11.7318 15.0234 11.5885 15.2318 11.4062 15.4141C11.2292 15.5911 11.0208 15.7344 10.7812 15.8438C10.5469 15.9479 10.2995 16 10.0391 16H1.96094C1.70052 16 1.45052 15.9479 1.21094 15.8438C0.976562 15.7344 0.768229 15.5911 0.585938 15.4141C0.408854 15.2318 0.265625 15.0234 0.15625 14.7891C0.0520833 14.5495 0 14.2995 0 14.0391V1.96094C0 1.70052 0.0520833 1.45312 0.15625 1.21875C0.265625 0.979167 0.408854 0.770833 0.585938 0.59375C0.768229 0.411458 0.976562 0.268229 1.21094 0.164062C1.45052 0.0546875 1.70052 0 1.96094 0H7.29688C7.57292 0 7.80729 0.0963542 8 0.289062L11.7109 4C11.7995 4.08854 11.8698 4.19792 11.9219 4.32812C11.974 4.45312 12 4.57812 12 4.70312ZM11 5H8.5C8.29688 5 8.10417 4.96094 7.92188 4.88281C7.73958 4.80469 7.57812 4.69792 7.4375 4.5625C7.30208 4.42188 7.19531 4.26042 7.11719 4.07812C7.03906 3.89583 7 3.70312 7 3.5V1H2C1.85938 1 1.72917 1.02604 1.60938 1.07812C1.48958 1.13021 1.38281 1.20312 1.28906 1.29688C1.20052 1.38542 1.13021 1.48958 1.07812 1.60938C1.02604 1.72917 1 1.85938 1 2V14C1 14.1406 1.02604 14.2734 1.07812 14.3984C1.13021 14.5182 1.20052 14.6224 1.28906 14.7109C1.3776 14.7995 1.48177 14.8698 1.60156 14.9219C1.72656 14.974 1.85938 15 2 15H10C10.1406 15 10.2708 14.974 10.3906 14.9219C10.5104 14.8698 10.6146 14.7995 10.7031 14.7109C10.7969 14.6172 10.8698 14.5104 10.9219 14.3906C10.974 14.2708 11 14.1406 11 14V5ZM10.2969 4L8 1.70312V3.5C8 3.63542 8.04948 3.7526 8.14844 3.85156C8.2474 3.95052 8.36458 4 8.5 4H10.2969ZM8 7.5C8 7.36458 8.04948 7.2474 8.14844 7.14844C8.2474 7.04948 8.36458 7 8.5 7H9.5C9.63542 7 9.7526 7.04948 9.85156 7.14844C9.95052 7.2474 10 7.36458 10 7.5V13.5C10 13.6354 9.95052 13.7526 9.85156 13.8516C9.7526 13.9505 9.63542 14 9.5 14H8.5C8.36458 14 8.2474 13.9505 8.14844 13.8516C8.04948 13.7526 8 13.6354 8 13.5V7.5ZM3.5 9C3.63542 9 3.7526 9.04948 3.85156 9.14844C3.95052 9.2474 4 9.36458 4 9.5V13.5C4 13.6354 3.95052 13.7526 3.85156 13.8516C3.7526 13.9505 3.63542 14 3.5 14H2.5C2.36458 14 2.2474 13.9505 2.14844 13.8516C2.04948 13.7526 2 13.6354 2 13.5V9.5C2 9.36458 2.04948 9.2474 2.14844 9.14844C2.2474 9.04948 2.36458 9 2.5 9H3.5ZM6.5 11C6.63542 11 6.7526 11.0495 6.85156 11.1484C6.95052 11.2474 7 11.3646 7 11.5V13.5C7 13.6354 6.95052 13.7526 6.85156 13.8516C6.7526 13.9505 6.63542 14 6.5 14H5.5C5.36458 14 5.2474 13.9505 5.14844 13.8516C5.04948 13.7526 5 13.6354 5 13.5V11.5C5 11.3646 5.04948 11.2474 5.14844 11.1484C5.2474 11.0495 5.36458 11 5.5 11H6.5Z" fill="black" fill-opacity="0.8956"/>
</svg>
