<svg width="14" height="14" viewBox="0 0 14 14" fill="none" xmlns="http://www.w3.org/2000/svg">
<path d="M11.0625 0C11.4531 0 11.8255 0.0807292 12.1797 0.242188C12.5391 0.398438 12.8516 0.611979 13.1172 0.882812C13.388 1.14844 13.6016 1.46094 13.7578 1.82031C13.9193 2.17448 14 2.54688 14 2.9375V11.0625C14 11.4531 13.9193 11.8281 13.7578 12.1875C13.6016 12.5417 13.388 12.8542 13.1172 13.125C12.8516 13.3906 12.5391 13.6042 12.1797 13.7656C11.8255 13.9219 11.4531 14 11.0625 14H2.9375C2.54688 14 2.17188 13.9219 1.8125 13.7656C1.45833 13.6042 1.14583 13.3906 0.875 13.125C0.609375 12.8542 0.395833 12.5417 0.234375 12.1875C0.078125 11.8281 0 11.4531 0 11.0625V2.9375C0 2.54688 0.078125 2.17448 0.234375 1.82031C0.395833 1.46094 0.609375 1.14844 0.875 0.882812C1.14583 0.611979 1.45833 0.398438 1.8125 0.242188C2.17188 0.0807292 2.54688 0 2.9375 0H11.0625ZM2.96094 1C2.69531 1 2.44271 1.05469 2.20312 1.16406C1.96354 1.27344 1.75521 1.41927 1.57812 1.60156C1.40104 1.78385 1.26042 1.9974 1.15625 2.24219C1.05208 2.48177 1 2.73438 1 3H13V2.96094C13 2.70052 12.9453 2.45312 12.8359 2.21875C12.7318 1.97917 12.5885 1.77083 12.4062 1.59375C12.2292 1.41146 12.0208 1.26823 11.7812 1.16406C11.5469 1.05469 11.2995 1 11.0391 1H2.96094ZM11.0391 13C11.2995 13 11.5469 12.9479 11.7812 12.8438C12.0208 12.7344 12.2292 12.5911 12.4062 12.4141C12.5885 12.2318 12.7318 12.0234 12.8359 11.7891C12.9453 11.5495 13 11.2995 13 11.0391V4H1V11.0391C1 11.2995 1.05208 11.5495 1.15625 11.7891C1.26562 12.0234 1.40885 12.2318 1.58594 12.4141C1.76823 12.5911 1.97656 12.7344 2.21094 12.8438C2.45052 12.9479 2.70052 13 2.96094 13H11.0391ZM3 7C3 6.85938 3.02604 6.72917 3.07812 6.60938C3.13021 6.48958 3.20052 6.38542 3.28906 6.29688C3.38281 6.20312 3.48958 6.13021 3.60938 6.07812C3.73438 6.02604 3.86719 6 4.00781 6C4.14844 6 4.27865 6.02604 4.39844 6.07812C4.51823 6.13021 4.6224 6.20052 4.71094 6.28906C4.79948 6.3776 4.86979 6.48177 4.92188 6.60156C4.97396 6.72135 5 6.85156 5 6.99219C5 7.13281 4.97396 7.26562 4.92188 7.39062C4.86979 7.51042 4.79688 7.61719 4.70312 7.71094C4.61458 7.79948 4.51042 7.86979 4.39062 7.92188C4.27083 7.97396 4.14062 8 4 8C3.85938 8 3.72656 7.97396 3.60156 7.92188C3.48177 7.86979 3.3776 7.79948 3.28906 7.71094C3.20052 7.6224 3.13021 7.51823 3.07812 7.39844C3.02604 7.27344 3 7.14062 3 7ZM6 7C6 6.85938 6.02604 6.72917 6.07812 6.60938C6.13021 6.48958 6.20052 6.38542 6.28906 6.29688C6.38281 6.20312 6.48958 6.13021 6.60938 6.07812C6.73438 6.02604 6.86719 6 7.00781 6C7.14844 6 7.27865 6.02604 7.39844 6.07812C7.51823 6.13021 7.6224 6.20052 7.71094 6.28906C7.79948 6.3776 7.86979 6.48177 7.92188 6.60156C7.97396 6.72135 8 6.85156 8 6.99219C8 7.13281 7.97396 7.26562 7.92188 7.39062C7.86979 7.51042 7.79688 7.61719 7.70312 7.71094C7.61458 7.79948 7.51042 7.86979 7.39062 7.92188C7.27083 7.97396 7.14062 8 7 8C6.85938 8 6.72656 7.97396 6.60156 7.92188C6.48177 7.86979 6.3776 7.79948 6.28906 7.71094C6.20052 7.6224 6.13021 7.51823 6.07812 7.39844C6.02604 7.27344 6 7.14062 6 7ZM11 6.99219C11 7.13281 10.974 7.26562 10.9219 7.39062C10.8698 7.51042 10.7969 7.61719 10.7031 7.71094C10.6146 7.79948 10.5104 7.86979 10.3906 7.92188C10.2708 7.97396 10.1406 8 10 8C9.85938 8 9.72656 7.97396 9.60156 7.92188C9.48177 7.86979 9.3776 7.79948 9.28906 7.71094C9.20052 7.6224 9.13021 7.51823 9.07812 7.39844C9.02604 7.27344 9 7.14062 9 7C9 6.85938 9.02604 6.72917 9.07812 6.60938C9.13021 6.48958 9.20052 6.38542 9.28906 6.29688C9.38281 6.20312 9.48958 6.13021 9.60938 6.07812C9.73438 6.02604 9.86719 6 10.0078 6C10.1484 6 10.2786 6.02604 10.3984 6.07812C10.5182 6.13021 10.6224 6.20052 10.7109 6.28906C10.7995 6.3776 10.8698 6.48177 10.9219 6.60156C10.974 6.72135 11 6.85156 11 6.99219ZM5 10C5 10.1406 4.97396 10.2708 4.92188 10.3906C4.86979 10.5104 4.79688 10.6172 4.70312 10.7109C4.61458 10.7995 4.50781 10.8698 4.38281 10.9219C4.26302 10.974 4.13281 11 3.99219 11C3.85156 11 3.72135 10.974 3.60156 10.9219C3.48177 10.8698 3.3776 10.7995 3.28906 10.7109C3.20052 10.6224 3.13021 10.5182 3.07812 10.3984C3.02604 10.2786 3 10.1484 3 10.0078C3 9.86719 3.02604 9.73698 3.07812 9.61719C3.13021 9.49219 3.20052 9.38542 3.28906 9.29688C3.38281 9.20312 3.48958 9.13021 3.60938 9.07812C3.72917 9.02604 3.85938 9 4 9C4.14062 9 4.27083 9.02604 4.39062 9.07812C4.51562 9.13021 4.6224 9.20052 4.71094 9.28906C4.79948 9.3776 4.86979 9.48438 4.92188 9.60938C4.97396 9.72917 5 9.85938 5 10ZM8 10C8 10.1406 7.97396 10.2708 7.92188 10.3906C7.86979 10.5104 7.79688 10.6172 7.70312 10.7109C7.61458 10.7995 7.50781 10.8698 7.38281 10.9219C7.26302 10.974 7.13281 11 6.99219 11C6.85156 11 6.72135 10.974 6.60156 10.9219C6.48177 10.8698 6.3776 10.7995 6.28906 10.7109C6.20052 10.6224 6.13021 10.5182 6.07812 10.3984C6.02604 10.2786 6 10.1484 6 10.0078C6 9.86719 6.02604 9.73698 6.07812 9.61719C6.13021 9.49219 6.20052 9.38542 6.28906 9.29688C6.38281 9.20312 6.48958 9.13021 6.60938 9.07812C6.72917 9.02604 6.85938 9 7 9C7.14062 9 7.27083 9.02604 7.39062 9.07812C7.51562 9.13021 7.6224 9.20052 7.71094 9.28906C7.79948 9.3776 7.86979 9.48438 7.92188 9.60938C7.97396 9.72917 8 9.85938 8 10Z" fill="black" fill-opacity="0.8956"/>
</svg>
