<svg width="14" height="16" viewBox="0 0 14 16" fill="none" xmlns="http://www.w3.org/2000/svg">
<path d="M8.5 3.60156C8.5 4.21094 8.36719 4.78906 8.10156 5.33594C7.84115 5.8776 7.47396 6.33854 7 6.71875V13.5547C7 13.8932 6.93229 14.2109 6.79688 14.5078C6.66146 14.8047 6.47917 15.0651 6.25 15.2891C6.02083 15.5078 5.75521 15.6823 5.45312 15.8125C5.15104 15.9375 4.83333 16 4.5 16C4.15104 16 3.82552 15.9349 3.52344 15.8047C3.22135 15.6745 2.95573 15.4974 2.72656 15.2734C2.5026 15.0443 2.32552 14.7786 2.19531 14.4766C2.0651 14.1745 2 13.849 2 13.5V6.71875C1.52604 6.33854 1.15625 5.8776 0.890625 5.33594C0.630208 4.78906 0.5 4.21094 0.5 3.60156C0.5 3.2526 0.544271 2.90885 0.632812 2.57031C0.726562 2.22656 0.859375 1.90365 1.03125 1.60156C1.20312 1.29427 1.41146 1.01562 1.65625 0.765625C1.90625 0.510417 2.1875 0.299479 2.5 0.132812C2.58333 0.0911458 2.66406 0.0598958 2.74219 0.0390625C2.82031 0.0130208 2.90625 0 3 0C3.14062 0 3.27083 0.0260417 3.39062 0.078125C3.51042 0.130208 3.61458 0.203125 3.70312 0.296875C3.79688 0.385417 3.86979 0.489583 3.92188 0.609375C3.97396 0.729167 4 0.859375 4 1V3.10156H5V1C5 0.859375 5.02604 0.729167 5.07812 0.609375C5.13021 0.489583 5.20052 0.385417 5.28906 0.296875C5.38281 0.203125 5.48958 0.130208 5.60938 0.078125C5.72917 0.0260417 5.85938 0 6 0C6.09375 0 6.17969 0.0130208 6.25781 0.0390625C6.33594 0.0598958 6.41667 0.0911458 6.5 0.132812C6.80729 0.299479 7.08333 0.510417 7.32812 0.765625C7.57812 1.01562 7.78906 1.29427 7.96094 1.60156C8.13281 1.90365 8.26562 2.22656 8.35938 2.57031C8.45312 2.91406 8.5 3.25781 8.5 3.60156ZM14 8.5V13.5547C14 13.8932 13.9323 14.2109 13.7969 14.5078C13.6615 14.8047 13.4792 15.0651 13.25 15.2891C13.0208 15.5078 12.7552 15.6823 12.4531 15.8125C12.151 15.9375 11.8333 16 11.5 16C11.1667 16 10.849 15.9375 10.5469 15.8125C10.2448 15.6823 9.97917 15.5078 9.75 15.2891C9.52083 15.0651 9.33854 14.8047 9.20312 14.5078C9.06771 14.2109 9 13.8932 9 13.5547V8.5C9 8.38542 9.02083 8.29688 9.0625 8.23438C9.10938 8.16667 9.16667 8.11719 9.23438 8.08594C9.30729 8.04948 9.38542 8.02604 9.46875 8.01562C9.55729 8.00521 9.64583 8 9.73438 8H10V3.11719C9.96875 3.0599 9.92448 2.98177 9.86719 2.88281C9.8151 2.77865 9.76042 2.67188 9.70312 2.5625C9.65104 2.45312 9.60417 2.34896 9.5625 2.25C9.52083 2.14583 9.5 2.0625 9.5 2C9.5 1.94271 9.52344 1.83854 9.57031 1.6875C9.61719 1.53125 9.66927 1.36719 9.72656 1.19531C9.78385 1.01823 9.84115 0.851562 9.89844 0.695312C9.95573 0.533854 9.9974 0.416667 10.0234 0.34375C10.0547 0.244792 10.1146 0.164062 10.2031 0.101562C10.2969 0.0338542 10.3958 0 10.5 0H12.5C12.6094 0 12.7057 0.03125 12.7891 0.09375C12.8776 0.15625 12.9401 0.239583 12.9766 0.34375C12.9974 0.416667 13.0365 0.533854 13.0938 0.695312C13.1562 0.851562 13.2161 1.01823 13.2734 1.19531C13.3307 1.36719 13.3828 1.53125 13.4297 1.6875C13.4766 1.83854 13.5 1.94271 13.5 2C13.5 2.0625 13.4792 2.14583 13.4375 2.25C13.3958 2.34896 13.3464 2.45312 13.2891 2.5625C13.237 2.67188 13.1823 2.77865 13.125 2.88281C13.0729 2.98177 13.0312 3.0599 13 3.11719V8H13.2656C13.3542 8 13.4401 8.00521 13.5234 8.01562C13.612 8.02604 13.6901 8.04948 13.7578 8.08594C13.8307 8.11719 13.888 8.16667 13.9297 8.23438C13.9766 8.29688 14 8.38542 14 8.5ZM6 6.19531C6.23438 6.0651 6.44271 5.90625 6.625 5.71875C6.8125 5.53125 6.97135 5.32552 7.10156 5.10156C7.23177 4.8776 7.33073 4.63802 7.39844 4.38281C7.46615 4.1276 7.5 3.86719 7.5 3.60156C7.5 3.04948 7.36719 2.54948 7.10156 2.10156C6.84115 1.64844 6.47396 1.28125 6 1V4.10156H3V1C2.52604 1.28125 2.15625 1.64844 1.89062 2.10156C1.63021 2.54948 1.5 3.04948 1.5 3.60156C1.5 3.86719 1.53385 4.1276 1.60156 4.38281C1.66927 4.63802 1.76823 4.8776 1.89844 5.10156C2.02865 5.32552 2.1849 5.53125 2.36719 5.71875C2.55469 5.90625 2.76562 6.0651 3 6.19531V13.5C3 13.7031 3.03906 13.8958 3.11719 14.0781C3.19531 14.2604 3.30208 14.4219 3.4375 14.5625C3.57812 14.6979 3.73958 14.8047 3.92188 14.8828C4.10417 14.9609 4.29688 15 4.5 15C4.70312 15 4.89583 14.9609 5.07812 14.8828C5.26042 14.8047 5.41927 14.6979 5.55469 14.5625C5.69531 14.4219 5.80469 14.2604 5.88281 14.0781C5.96094 13.8958 6 13.7031 6 13.5V6.19531ZM11 8H12V3C12 2.92188 12.0182 2.84635 12.0547 2.77344L12.4609 1.96094L12.1406 1H10.8594L10.5391 1.96094L10.9453 2.77344C10.9818 2.84635 11 2.92188 11 3V8ZM10 9V10H13V9H10ZM13 13.5V11H10V13.5C10 13.7031 10.0391 13.8958 10.1172 14.0781C10.1953 14.2604 10.3021 14.4219 10.4375 14.5625C10.5781 14.6979 10.7396 14.8047 10.9219 14.8828C11.1042 14.9609 11.2969 15 11.5 15C11.7031 15 11.8958 14.9609 12.0781 14.8828C12.2604 14.8047 12.4193 14.6979 12.5547 14.5625C12.6953 14.4219 12.8047 14.2604 12.8828 14.0781C12.9609 13.8958 13 13.7031 13 13.5Z" fill="black" fill-opacity="0.8956"/>
</svg>
